<svg width="845" xmlns="http://www.w3.org/2000/svg" height="234" id="screenshot-0a8cf0f8-e31b-80f4-8007-aefdefcdd9a7" viewBox="28 2133 845 234" style="-webkit-print-color-adjust::exact" xmlns:xlink="http://www.w3.org/1999/xlink" fill="none" version="1.1">
  <style>
  </style>
  <g id="shape-0a8cf0f8-e31b-80f4-8007-aefdefcdd9a7" rx="0" ry="0">
    <g id="shape-0a8cf0f8-e31b-80f4-8007-aef9fd34f16c" rx="0" ry="0">
      <g id="shape-7f18852c-93fa-804f-8007-afd1118636d4">
        <g class="fills" id="fills-7f18852c-93fa-804f-8007-afd1118636d4">
          <path d="M770.0506591796875,2319.776123046875C740.0292358398438,2318.661376953125,716,2294.05517578125,716,2263.90771484375C716,2233.051513671875,741.1724243164062,2208,772.1777954101562,2208C799.0026245117188,2208,821.4613647460938,2226.75146484375,827.030029296875,2251.790283203125L770.0506591796875,2319.776123046875M772.1777954101562,2253.115478515625C766.1925659179688,2253.115478515625,761.3333129882812,2257.951171875,761.3333129882812,2263.90771484375C761.3333129882812,2269.864013671875,766.1925659179688,2274.699951171875,772.1777954101562,2274.699951171875C778.1629638671875,2274.699951171875,783.022216796875,2269.864013671875,783.022216796875,2263.90771484375C783.022216796875,2257.951171875,778.1629638671875,2253.115478515625,772.1777954101562,2253.115478515625" style="fill:#ffffff;fill-opacity:1">
          </path>
        </g>
      </g>
      <g id="shape-0a8cf0f8-e31b-80f4-8007-aef87eacb3f4">
        <g class="fills" id="fills-0a8cf0f8-e31b-80f4-8007-aef87eacb3f4">
          <rect rx="0" ry="0" x="842.2222222222217" y="2304.6000000000004" transform="matrix(1.000000, 0.000000, 0.000000, 1.000000, 0.000000, 0.000000)" width="5.333333333333485" height="5.307692307692378" style="fill:#ffffff;fill-opacity:1">
          </rect>
        </g>
      </g>
      <g id="shape-0a8cf0f8-e31b-80f4-8007-aef956d93b8e">
        <g class="fills" id="fills-0a8cf0f8-e31b-80f4-8007-aef956d93b8e">
          <rect rx="0" ry="0" x="842.5777777777771" y="2288.3230769230768" transform="matrix(1.000000, 0.000000, 0.000000, 1.000000, 0.000000, 0.000000)" width="5.33333333333394" height="5.307692307692378" style="fill:#ffffff;fill-opacity:1">
          </rect>
        </g>
      </g>
      <g id="shape-0a8cf0f8-e31b-80f4-8007-aef959be3a79">
        <g class="fills" id="fills-0a8cf0f8-e31b-80f4-8007-aef959be3a79">
          <rect rx="0" ry="0" x="842.9333333333329" y="2272.046153846154" transform="matrix(1.000000, 0.000000, 0.000000, 1.000000, 0.000000, 0.000000)" width="5.33333333333303" height="5.307692307692378" style="fill:#ffffff;fill-opacity:1">
          </rect>
        </g>
      </g>
      <g id="shape-0a8cf0f8-e31b-80f4-8007-aef95aff33d0">
        <g class="fills" id="fills-0a8cf0f8-e31b-80f4-8007-aef95aff33d0">
          <rect rx="0" ry="0" x="825.5111111111106" y="2261.4307692307693" transform="matrix(1.000000, 0.000000, 0.000000, 1.000000, 0.000000, 0.000000)" width="5.3333333333329165" height="5.307692307692378" style="fill:#ffffff;fill-opacity:1">
          </rect>
        </g>
      </g>
      <g id="shape-0a8cf0f8-e31b-80f4-8007-aef9619a9f63">
        <g class="fills" id="fills-0a8cf0f8-e31b-80f4-8007-aef9619a9f63">
          <rect rx="0" ry="0" x="845.422222222222" y="2294.6923076923076" transform="matrix(1.000000, 0.000000, 0.000000, 1.000000, 0.000000, 0.000000)" width="5.33333333333303" height="5.307692307692378" style="fill:#ffffff;fill-opacity:1">
          </rect>
        </g>
      </g>
      <g id="shape-0a8cf0f8-e31b-80f4-8007-aef966ff5cc4">
        <g class="fills" id="fills-0a8cf0f8-e31b-80f4-8007-aef966ff5cc4">
          <rect rx="0" ry="0" x="839.0222222222214" y="2307.4307692307693" transform="matrix(1.000000, 0.000000, 0.000000, 1.000000, 0.000000, 0.000000)" width="5.33333333333394" height="5.307692307692378" style="fill:#ffffff;fill-opacity:1">
          </rect>
        </g>
      </g>
      <g id="shape-0a8cf0f8-e31b-80f4-8007-aef971dad0ba">
        <g class="fills" id="fills-0a8cf0f8-e31b-80f4-8007-aef971dad0ba">
          <rect rx="0" ry="0" x="846.8444444444435" y="2310.9692307692308" transform="matrix(1.000000, 0.000000, 0.000000, 1.000000, 0.000000, 0.000000)" width="5.333333333333485" height="5.307692307692378" style="fill:#ffffff;fill-opacity:1">
          </rect>
        </g>
      </g>
      <g id="shape-0a8cf0f8-e31b-80f4-8007-aef9758ed75e">
        <g class="fills" id="fills-0a8cf0f8-e31b-80f4-8007-aef9758ed75e">
          <rect rx="0" ry="0" x="854.6666666666661" y="2314.507692307692" transform="matrix(1.000000, 0.000000, 0.000000, 1.000000, 0.000000, 0.000000)" width="5.333333333333485" height="5.307692307692378" style="fill:#ffffff;fill-opacity:1">
          </rect>
        </g>
      </g>
      <g id="shape-0a8cf0f8-e31b-80f4-8007-aef977656623">
        <g class="fills" id="fills-0a8cf0f8-e31b-80f4-8007-aef977656623">
          <rect rx="0" ry="0" x="850.755555555555" y="2304.2461538461534" transform="matrix(1.000000, 0.000000, 0.000000, 1.000000, 0.000000, 0.000000)" width="5.333333333333485" height="5.307692307691923" style="fill:#ffffff;fill-opacity:1">
          </rect>
        </g>
      </g>
      <g id="shape-0a8cf0f8-e31b-80f4-8007-aef96af05286">
        <g class="fills" id="fills-0a8cf0f8-e31b-80f4-8007-aef96af05286">
          <rect rx="0" ry="0" x="834.0444444444438" y="2314.1538461538457" transform="matrix(1.000000, 0.000000, 0.000000, 1.000000, 0.000000, 0.000000)" width="5.333333333333485" height="5.307692307692378" style="fill:#ffffff;fill-opacity:1">
          </rect>
        </g>
      </g>
      <g id="shape-0a8cf0f8-e31b-80f4-8007-aef95d614930">
        <g class="fills" id="fills-0a8cf0f8-e31b-80f4-8007-aef95d614930">
          <rect rx="0" ry="0" x="827.2888888888888" y="2266.0307692307692" transform="matrix(1.000000, 0.000000, 0.000000, 1.000000, 0.000000, 0.000000)" width="5.33333333333303" height="5.307692307691923" style="fill:#ffffff;fill-opacity:1">
          </rect>
        </g>
      </g>
      <g id="shape-0a8cf0f8-e31b-80f4-8007-aef8921d5725">
        <g class="fills" id="fills-0a8cf0f8-e31b-80f4-8007-aef8921d5725">
          <rect rx="0" ry="0" x="812.7111111111104" y="2263.2" transform="matrix(1.000000, 0.000000, 0.000000, 1.000000, 0.000000, 0.000000)" width="10.66666666666697" height="10.615384615384755" style="fill:#ffffff;fill-opacity:1">
          </rect>
        </g>
      </g>
      <g id="shape-0a8cf0f8-e31b-80f4-8007-aef90abfc29e">
        <g class="fills" id="fills-0a8cf0f8-e31b-80f4-8007-aef90abfc29e">
          <rect rx="0" ry="0" x="818.7555555555551" y="2275.2307692307695" transform="matrix(1.000000, 0.000000, 0.000000, 1.000000, 0.000000, 0.000000)" width="10.666666666666856" height="10.615384615383846" style="fill:#ffffff;fill-opacity:1">
          </rect>
        </g>
      </g>
      <g id="shape-0a8cf0f8-e31b-80f4-8007-aef8af4597e0">
        <g class="fills" id="fills-0a8cf0f8-e31b-80f4-8007-aef8af4597e0">
          <rect rx="0" ry="0" x="802.0444444444439" y="2280.8923076923074" transform="matrix(1.000000, 0.000000, 0.000000, 1.000000, 0.000000, 0.000000)" width="10.666666666666515" height="10.615384615384755" style="fill:#ffffff;fill-opacity:1">
          </rect>
        </g>
      </g>
      <g id="shape-0a8cf0f8-e31b-80f4-8007-aef910e8a49e">
        <g class="fills" id="fills-0a8cf0f8-e31b-80f4-8007-aef910e8a49e">
          <rect rx="0" ry="0" x="829.7777777777774" y="2267.8" transform="matrix(1.000000, 0.000000, 0.000000, 1.000000, 0.000000, 0.000000)" width="10.666666666666515" height="10.6153846153843" style="fill:#ffffff;fill-opacity:1">
          </rect>
        </g>
      </g>
      <g id="shape-0a8cf0f8-e31b-80f4-8007-aef93137d397">
        <g class="fills" id="fills-0a8cf0f8-e31b-80f4-8007-aef93137d397">
          <rect rx="0" ry="0" x="829.7777777777774" y="2267.8" transform="matrix(1.000000, 0.000000, 0.000000, 1.000000, 0.000000, 0.000000)" width="10.666666666666515" height="10.6153846153843" style="fill:#ffffff;fill-opacity:1">
          </rect>
        </g>
      </g>
      <g id="shape-0a8cf0f8-e31b-80f4-8007-aef916981a50">
        <g class="fills" id="fills-0a8cf0f8-e31b-80f4-8007-aef916981a50">
          <rect rx="0" ry="0" x="833.6888888888884" y="2258.2461538461544" transform="matrix(1.000000, 0.000000, 0.000000, 1.000000, 0.000000, 0.000000)" width="8.888888888888687" height="8.846153846153811" style="fill:#ffffff;fill-opacity:1">
          </rect>
        </g>
      </g>
      <g id="shape-0a8cf0f8-e31b-80f4-8007-aef9233e0b19">
        <g class="fills" id="fills-0a8cf0f8-e31b-80f4-8007-aef9233e0b19">
          <rect rx="0" ry="0" x="839.7333333333322" y="2275.5846153846155" transform="matrix(1.000000, 0.000000, 0.000000, 1.000000, 0.000000, 0.000000)" width="8.888888888889142" height="8.846153846153811" style="fill:#ffffff;fill-opacity:1">
          </rect>
        </g>
      </g>
      <g id="shape-0a8cf0f8-e31b-80f4-8007-aef926658d0c">
        <g class="fills" id="fills-0a8cf0f8-e31b-80f4-8007-aef926658d0c">
          <rect rx="0" ry="0" x="828.3555555555549" y="2287.9692307692303" transform="matrix(1.000000, 0.000000, 0.000000, 1.000000, 0.000000, 0.000000)" width="8.888888888888687" height="8.846153846154266" style="fill:#ffffff;fill-opacity:1">
          </rect>
        </g>
      </g>
      <g id="shape-0a8cf0f8-e31b-80f4-8007-aef93a8b6197">
        <g class="fills" id="fills-0a8cf0f8-e31b-80f4-8007-aef93a8b6197">
          <rect rx="0" ry="0" x="815.5555555555553" y="2281.246153846154" transform="matrix(1.000000, 0.000000, 0.000000, 1.000000, 0.000000, 0.000000)" width="8.888888888888687" height="8.846153846153811" style="fill:#ffffff;fill-opacity:1">
          </rect>
        </g>
      </g>
      <g id="shape-0a8cf0f8-e31b-80f4-8007-aef943e5756d">
        <g class="fills" id="fills-0a8cf0f8-e31b-80f4-8007-aef943e5756d">
          <rect rx="0" ry="0" x="831.1999999999998" y="2280.538461538462" transform="matrix(1.000000, 0.000000, 0.000000, 1.000000, 0.000000, 0.000000)" width="8.888888888888687" height="8.846153846153356" style="fill:#ffffff;fill-opacity:1">
          </rect>
        </g>
      </g>
      <g id="shape-0a8cf0f8-e31b-80f4-8007-aef946f23c61">
        <g class="fills" id="fills-0a8cf0f8-e31b-80f4-8007-aef946f23c61">
          <rect rx="0" ry="0" x="834.7555555555555" y="2294.6923076923076" transform="matrix(1.000000, 0.000000, 0.000000, 1.000000, 0.000000, 0.000000)" width="8.888888888888687" height="8.846153846154266" style="fill:#ffffff;fill-opacity:1">
          </rect>
        </g>
      </g>
      <g id="shape-0a8cf0f8-e31b-80f4-8007-aef94b213659">
        <g class="fills" id="fills-0a8cf0f8-e31b-80f4-8007-aef94b213659">
          <rect rx="0" ry="0" x="827.9999999999991" y="2306.369230769231" transform="matrix(1.000000, 0.000000, 0.000000, 1.000000, 0.000000, 0.000000)" width="8.888888888889142" height="8.846153846153356" style="fill:#ffffff;fill-opacity:1">
          </rect>
        </g>
      </g>
      <g id="shape-0a8cf0f8-e31b-80f4-8007-aef9368aba89">
        <g class="fills" id="fills-0a8cf0f8-e31b-80f4-8007-aef9368aba89">
          <rect rx="0" ry="0" x="813.0666666666667" y="2311.676923076923" transform="matrix(1.000000, 0.000000, 0.000000, 1.000000, 0.000000, 0.000000)" width="8.888888888888687" height="8.846153846153811" style="fill:#ffffff;fill-opacity:1">
          </rect>
        </g>
      </g>
      <g id="shape-0a8cf0f8-e31b-80f4-8007-aef92909cc56">
        <g class="fills" id="fills-0a8cf0f8-e31b-80f4-8007-aef92909cc56">
          <rect rx="0" ry="0" x="821.9555555555554" y="2300.7076923076925" transform="matrix(1.000000, 0.000000, 0.000000, 1.000000, 0.000000, 0.000000)" width="8.888888888888118" height="8.846153846153356" style="fill:#ffffff;fill-opacity:1">
          </rect>
        </g>
      </g>
      <g id="shape-0a8cf0f8-e31b-80f4-8007-aef8d0a0b4e3">
        <g class="fills" id="fills-0a8cf0f8-e31b-80f4-8007-aef8d0a0b4e3">
          <rect rx="0" ry="0" x="812.355555555555" y="2289.3846153846152" transform="matrix(1.000000, 0.000000, 0.000000, 1.000000, 0.000000, 0.000000)" width="10.666666666666515" height="10.615384615384755" style="fill:#ffffff;fill-opacity:1">
          </rect>
        </g>
      </g>
      <g id="shape-0a8cf0f8-e31b-80f4-8007-aef8f9cfc077">
        <g class="fills" id="fills-0a8cf0f8-e31b-80f4-8007-aef8f9cfc077">
          <rect rx="0" ry="0" x="799.1999999999995" y="2289.3846153846152" transform="matrix(1.000000, 0.000000, 0.000000, 1.000000, 0.000000, 0.000000)" width="10.666666666666515" height="10.615384615384755" style="fill:#ffffff;fill-opacity:1">
          </rect>
        </g>
      </g>
      <g id="shape-0a8cf0f8-e31b-80f4-8007-aef8ff748f2c">
        <g class="fills" id="fills-0a8cf0f8-e31b-80f4-8007-aef8ff748f2c">
          <rect rx="0" ry="0" x="788.533333333333" y="2310.2615384615383" transform="matrix(1.000000, 0.000000, 0.000000, 1.000000, 0.000000, 0.000000)" width="10.666666666666515" height="10.61538461538521" style="fill:#ffffff;fill-opacity:1">
          </rect>
        </g>
      </g>
      <g id="shape-0a8cf0f8-e31b-80f4-8007-aef8c5f78bf0">
        <g class="fills" id="fills-0a8cf0f8-e31b-80f4-8007-aef8c5f78bf0">
          <rect rx="0" ry="0" x="786.7555555555551" y="2286.2" transform="matrix(1.000000, 0.000000, 0.000000, 1.000000, 0.000000, 0.000000)" width="10.66666666666697" height="10.615384615384755" style="fill:#ffffff;fill-opacity:1">
          </rect>
        </g>
      </g>
      <g id="shape-0a8cf0f8-e31b-80f4-8007-aef8c96c0e6c">
        <g class="fills" id="fills-0a8cf0f8-e31b-80f4-8007-aef8c96c0e6c">
          <rect rx="0" ry="0" x="783.1999999999995" y="2293.276923076923" transform="matrix(1.000000, 0.000000, 0.000000, 1.000000, 0.000000, 0.000000)" width="10.666666666666515" height="10.615384615384755" style="fill:#ffffff;fill-opacity:1">
          </rect>
        </g>
      </g>
      <g id="shape-0a8cf0f8-e31b-80f4-8007-aef8b326c6e9">
        <g class="fills" id="fills-0a8cf0f8-e31b-80f4-8007-aef8b326c6e9">
          <rect rx="0" ry="0" x="791.3777777777774" y="2298.5846153846155" transform="matrix(1.000000, 0.000000, 0.000000, 1.000000, 0.000000, 0.000000)" width="10.666666666666515" height="10.6153846153843" style="fill:#ffffff;fill-opacity:1">
          </rect>
        </g>
      </g>
      <g id="shape-0a8cf0f8-e31b-80f4-8007-aef8bf8ef1fd">
        <g class="fills" id="fills-0a8cf0f8-e31b-80f4-8007-aef8bf8ef1fd">
          <rect rx="0" ry="0" x="808.444444444444" y="2302.4769230769225" transform="matrix(1.000000, 0.000000, 0.000000, 1.000000, 0.000000, 0.000000)" width="10.66666666666697" height="10.615384615384755" style="fill:#ffffff;fill-opacity:1">
          </rect>
        </g>
      </g>
      <g id="shape-0a8cf0f8-e31b-80f4-8007-aef8c3cde183">
        <g class="fills" id="fills-0a8cf0f8-e31b-80f4-8007-aef8c3cde183">
          <rect rx="0" ry="0" x="802.7555555555547" y="2267.0923076923077" transform="matrix(1.000000, 0.000000, 0.000000, 1.000000, 0.000000, 0.000000)" width="10.66666666666697" height="10.61538461538521" style="fill:#ffffff;fill-opacity:1">
          </rect>
        </g>
      </g>
      <g id="shape-0a8cf0f8-e31b-80f4-8007-aef8b5047c0b">
        <g class="fills" id="fills-0a8cf0f8-e31b-80f4-8007-aef8b5047c0b">
          <rect rx="0" ry="0" x="776.0888888888886" y="2305.6615384615384" transform="matrix(1.000000, 0.000000, 0.000000, 1.000000, 0.000000, 0.000000)" width="10.666666666666515" height="10.6153846153843" style="fill:#ffffff;fill-opacity:1">
          </rect>
        </g>
      </g>
      <g id="shape-0a8cf0f8-e31b-80f4-8007-aef8bcb67115">
        <g class="fills" id="fills-0a8cf0f8-e31b-80f4-8007-aef8bcb67115">
          <rect rx="0" ry="0" x="768.2666666666665" y="2312.3846153846152" transform="matrix(1.000000, 0.000000, 0.000000, 1.000000, 0.000000, 0.000000)" width="10.66666666666606" height="10.615384615384755" style="fill:#ffffff;fill-opacity:1">
          </rect>
        </g>
      </g>
      <g id="shape-0a8cf0f8-e31b-80f4-8007-aef8a5344695">
        <g class="fills" id="fills-0a8cf0f8-e31b-80f4-8007-aef8a5344695">
          <rect rx="0" ry="0" x="819.4666666666659" y="2249.046153846154" transform="matrix(1.000000, 0.000000, 0.000000, 1.000000, 0.000000, 0.000000)" width="10.666666666666856" height="10.615384615384755" style="fill:#ffffff;fill-opacity:1">
          </rect>
        </g>
      </g>
    </g>
    <g id="shape-0a8cf0f8-e31b-80f4-8007-aefc800f2206">
      <g transform="matrix(1.000000, 0.000000, 0.000000, 1.000000, 0.000000, 0.000000)" class="text-container" x="28" y="2133" width="845" height="234" rx="0" ry="0">
        <defs>
          <pattern patternUnits="objectBoundingBox" width="672.1666870117188" height="235.33334350585938" id="fill-0-render-145-0">
            <g>
              <rect width="672.1666870117188" height="235.33334350585938" style="fill:#ffffff;fill-opacity:1">
              </rect>
            </g>
          </pattern>
        </defs>
        <g class="fills" id="fills-0a8cf0f8-e31b-80f4-8007-aefc800f2206">
          <text x="28" y="2367.6666768193245" dominant-baseline="ideographic" textLength="672.1666870117188" lengthAdjust="spacingAndGlyphs" style="text-transform:none;font-family:&quot;Bruno Ace SC&quot;;letter-spacing:normal;font-style:normal;font-weight:400;white-space:pre;font-size:195px;text-decoration:none;direction:ltr;fill:#ffffff;fill-opacity:1">Discli</text>
        </g>
      </g>
    </g>
  </g>
</svg>